<svg id="Layer_1" data-name="Layer 1" xmlns="http://www.w3.org/2000/svg" xmlns:xlink="http://www.w3.org/1999/xlink" viewBox="0 0 1163.34 288.84"><defs><style>.cls-1{fill:url(#linear-gradient);}.cls-2{fill:url(#linear-gradient-2);}.cls-3{fill:url(#linear-gradient-3);}.cls-4{fill:url(#linear-gradient-4);}.cls-5{fill:url(#linear-gradient-5);}.cls-6{fill:url(#linear-gradient-6);}.cls-7{fill:url(#linear-gradient-7);}.cls-8{fill:url(#linear-gradient-8);}.cls-9{fill:url(#linear-gradient-9);}.cls-10{fill:url(#linear-gradient-10);}.cls-11{fill:url(#linear-gradient-11);}</style><linearGradient id="linear-gradient" x1="293.1" y1="367.01" x2="295.36" y2="125.39" gradientUnits="userSpaceOnUse"><stop offset="0" stop-color="#490e7c"/><stop offset="0.03" stop-color="#4b127d"/><stop offset="1" stop-color="#98d48d"/></linearGradient><linearGradient id="linear-gradient-2" x1="260.81" y1="366.71" x2="263.06" y2="125.08" xlink:href="#linear-gradient"/><linearGradient id="linear-gradient-3" x1="1104.02" y1="374.59" x2="1106.28" y2="132.96" xlink:href="#linear-gradient"/><linearGradient id="linear-gradient-4" x1="1142.39" y1="374.95" x2="1144.65" y2="133.32" xlink:href="#linear-gradient"/><linearGradient id="linear-gradient-5" x1="1197.35" y1="375.46" x2="1199.61" y2="133.84" xlink:href="#linear-gradient"/><linearGradient id="linear-gradient-6" x1="1250.92" y1="375.96" x2="1253.17" y2="134.34" xlink:href="#linear-gradient"/><linearGradient id="linear-gradient-7" x1="513.05" y1="369.07" x2="515.3" y2="127.44" xlink:href="#linear-gradient"/><linearGradient id="linear-gradient-8" x1="680.45" y1="370.63" x2="682.71" y2="129.01" xlink:href="#linear-gradient"/><linearGradient id="linear-gradient-9" x1="772.42" y1="371.49" x2="774.68" y2="129.87" xlink:href="#linear-gradient"/><linearGradient id="linear-gradient-10" x1="873.63" y1="372.44" x2="875.88" y2="130.81" xlink:href="#linear-gradient"/><linearGradient id="linear-gradient-11" x1="1021.05" y1="373.82" x2="1023.31" y2="132.19" xlink:href="#linear-gradient"/></defs><path class="cls-1" d="M294.94,148.37a21.94,21.94,0,1,0,21.93,21.94A21.94,21.94,0,0,0,294.94,148.37Zm-4.44,38.36a11.21,11.21,0,1,1,11.21-11.22A11.22,11.22,0,0,1,290.5,186.73Z" transform="translate(-111.01 -67.78)"/><path class="cls-2" d="M413.23,225.91c0,42.71-17,80.55-45.45,108,22.78-79.69-73-93.69-92.14-58.28-8.22,15.21-5.2,35.83,10.57,40.5,17.86,5.3,28.48-8.17,29.29-19.94.66-9.73-7.65-17.81-7.65-17.81,29.41,2.64,30.66,55.6-16.33,60.37-27.6,2.81-47.15-12.26-57.48-34.56-12.72-27.5-2.19-65.58,28.08-81.53,15.25-8,40.95-13,64.2,4.19,2.19,1.63,11.24,5.64,13.81,6.22,20.6,4.66,36.59-8.68,40.63-27.84,2.74-13-3.3-39-13.46-54.53C343.9,115.11,303.46,93,249.13,91.37c-19.71.2-39.15,5.16-43.92,14.12-1.4,2.64,4.35,2.8,7.57,4.54,22.84,12.32-18.26,21.56-33.38,28.5-2.33,1-2.29,13.22,5.57,21.36-6,.54-29.75,5.07-44.74,31.31-6.76,12.76,18.71,2.65,18.76,10.65,0,1.63-2.25,4.94-2.87,6.22-33.7,69.77-10.05,115.08,30.13,148.54-44.31-24.3-75.24-74.9-75.24-130.7a151.11,151.11,0,1,1,302.22,0Z" transform="translate(-111.01 -67.78)"/><path class="cls-3" d="M1098.18,270.94a6.89,6.89,0,0,1,6.85-6.85,6.86,6.86,0,0,1,0,13.71A6.77,6.77,0,0,1,1098.18,270.94Z" transform="translate(-111.01 -67.78)"/><path class="cls-4" d="M1121.18,256.48c0-13.43,9.67-23.85,22.26-24a21.21,21.21,0,0,1,11.83,3.57v-3.57h10.33v47h-10.33v-2.82a21.21,21.21,0,0,1-11.83,3.57C1131,280.24,1121.18,269.81,1121.18,256.48Zm34,0c0-7.8-5.07-13.52-11.83-13.52s-11.93,5.82-11.93,13.52,5.17,13.52,11.93,13.52S1155.17,264.27,1155.17,256.48Z" transform="translate(-111.01 -67.78)"/><path class="cls-5" d="M1186.69,276.67v21.6h-10.33V232.53h10.33v3.57a21.25,21.25,0,0,1,11.84-3.57c12.58.1,22.25,10.52,22.25,24s-9.76,23.76-22.25,23.76A21.25,21.25,0,0,1,1186.69,276.67Zm23.86-20.19c0-7.7-5.17-13.52-11.93-13.52s-11.83,5.72-11.83,13.52,5.07,13.52,11.83,13.52S1210.55,264.18,1210.55,256.48Z" transform="translate(-111.01 -67.78)"/><path class="cls-6" d="M1240.26,276.67v21.6h-10.33V232.53h10.33v3.57a21.25,21.25,0,0,1,11.84-3.57c12.58.1,22.25,10.52,22.25,24s-9.76,23.76-22.25,23.76A21.25,21.25,0,0,1,1240.26,276.67Zm23.86-20.19c0-7.7-5.17-13.52-11.93-13.52s-11.83,5.72-11.83,13.52,5.07,13.52,11.83,13.52S1264.12,264.18,1264.12,256.48Z" transform="translate(-111.01 -67.78)"/><path class="cls-7" d="M605.64,184.65v94.52H571.82V185.25c0-16.91-6.34-24.16-19.33-24.16-13.29,0-21.44,9.06-21.44,24.16v93.92H497.23V185c0-16.31-6.34-23.86-19.33-23.86-11.78,0-20.54,10.57-20.54,23.86v94.22H423.54v-151h32.92v4.23a54.26,54.26,0,0,1,21.44-4.23A51,51,0,0,1,515,143.58c9.37-10,22.35-15.41,37.15-15.41C584.5,128.17,605.64,150.52,605.64,184.65Z" transform="translate(-111.01 -67.78)"/><path class="cls-8" d="M746.94,190.39v89.08H711.3V192.2c0-19.63-8.76-29-26.88-29-19.63,0-31.71,10.26-31.71,26.87v89.39H617.08V128.17H653v6.65a76.64,76.64,0,0,1,32-6.65C722.47,128.17,746.94,152.64,746.94,190.39Z" transform="translate(-111.01 -67.78)"/><path class="cls-9" d="M775.07,107.64a20.05,20.05,0,0,1-14.19-5.74,21.16,21.16,0,0,1-5.74-14.19,20.36,20.36,0,0,1,6-14.2,20.06,20.06,0,0,1,28.08,0c3.93,3.63,5.74,8.76,5.74,14.2a19.6,19.6,0,0,1-19.63,19.93ZM758.76,279.17v-151h33.83v151Z" transform="translate(-111.01 -67.78)"/><path class="cls-10" d="M801.05,205.18c0-43.18,32.31-76.7,74.29-76.7,41.67,0,74,33.82,74,76.7s-32.32,76.71-74,76.71C833.36,281.89,801.05,248.07,801.05,205.18Zm114.46-.6c0-23.86-17.22-42.28-39.87-42.28-23.25,0-40.47,18.12-40.47,42.28,0,24.46,17.22,42.58,40.47,42.58C898.29,247.16,915.51,228.74,915.51,204.58Z" transform="translate(-111.01 -67.78)"/><path class="cls-11" d="M1087.57,190.39v89.08h-35.64V192.2c0-19.63-8.76-29-26.88-29-19.63,0-31.71,10.26-31.71,26.87v89.39H957.71V128.17h35.93v6.65a76.69,76.69,0,0,1,32-6.65C1063.1,128.17,1087.57,152.64,1087.57,190.39Z" transform="translate(-111.01 -67.78)"/></svg>